<svg width="277" height="48" viewBox="0 0 277 48" fill="none" xmlns="http://www.w3.org/2000/svg">
<g clip-path="url(#clip0_2458_4084)">
<path d="M114.198 47.9778H98.3665C92.549 24.5225 71.3882 7.1144 46.164 7.1144C38.126 7.1144 30.5099 8.87077 23.6709 12.0278C32.9301 4.5132 44.7207 0 57.577 0C85.2881 0 109.713 20.943 114.198 47.9778Z" fill="black"/>
<path d="M78.5385 47.9772C74.031 41.6187 65.882 37.3945 56.5783 37.3945C47.2747 37.3945 39.1257 41.6409 34.6182 47.9772H78.5385Z" fill="#E9492C"/>
<path d="M71.9877 28.8369C71.8988 28.8147 71.81 28.7924 71.7212 28.7702C66.1923 26.458 59.9751 25.1685 53.3804 25.1685C35.6168 25.1685 20.429 34.6396 14.3894 47.9791H0.000976562C0.0453854 47.8235 0.0675898 47.6679 0.111999 47.5122C4.39745 30.9045 21.6059 18.4766 42.1671 18.4766C47.0077 18.4766 51.6484 19.1658 55.9783 20.433H56.0005C61.9291 22.1672 67.2803 24.9685 71.7212 28.5924C71.8322 28.6813 71.9211 28.7702 71.9877 28.8369Z" fill="black"/>
<path d="M162.626 4.02344C161.049 4.02344 159.828 4.82381 158.784 6.51348L133.849 47.9994H142.819L162.27 15.1842L171.441 30.6802H165.645H165.601C161.227 30.6802 157.119 33.0146 154.898 36.8386L154.765 37.1277L175.26 37.1721L181.677 47.9994H191.114L166.4 6.53571C165.357 4.80158 164.18 4.02344 162.626 4.02344Z" fill="black"/>
<path d="M182.321 12.4941L198.597 12.5163L198.486 47.9994H206.369L206.48 12.5608L222.711 12.6053L222.756 4.73496L182.366 4.60156L182.321 12.4941Z" fill="black"/>
<path d="M258.416 29.2136L250.555 29.1691C245.915 29.1691 241.252 32.2372 240.408 35.8833L240.364 36.1057C240.364 36.1057 240.408 36.1057 240.452 36.1057C240.452 36.1057 252.998 36.2391 257.172 36.1057C259.548 36.039 262.946 35.8389 265.299 35.0607C270.961 33.1932 274.137 27.5461 274.137 20.6763C274.181 10.9385 268.164 4.86898 258.46 4.82451L227.574 4.75781L227.463 48.0001H235.234L235.301 12.6726L258.394 12.7393C260.925 12.7393 262.923 13.4285 264.256 14.7402C265.632 16.1186 266.365 18.164 266.365 20.8097C266.365 23.5443 265.677 25.6119 264.344 27.057C263.057 28.4799 261.014 29.2136 258.416 29.2136Z" fill="black"/>
</g>
<defs>
<clipPath id="clip0_2458_4084">
<rect width="277" height="48" fill="white"/>
</clipPath>
</defs>
</svg>
